<?xml version="1.0" encoding="UTF-8" standalone="no"?>
<!-- Created with Inkscape (http://www.inkscape.org/) -->

<svg
   width="40"
   height="40"
   viewBox="0 0 10.583333 10.583333"
   version="1.1"
   id="svg5"
   inkscape:version="1.1.1 (c3084ef, 2021-09-22)"
   sodipodi:docname="pluginIcon.svg"
   xmlns:inkscape="http://www.inkscape.org/namespaces/inkscape"
   xmlns:sodipodi="http://sodipodi.sourceforge.net/DTD/sodipodi-0.dtd"
   xmlns="http://www.w3.org/2000/svg"
   xmlns:svg="http://www.w3.org/2000/svg">
  <sodipodi:namedview
     id="namedview7"
     pagecolor="#ffffff"
     bordercolor="#666666"
     borderopacity="1.0"
     inkscape:pageshadow="2"
     inkscape:pageopacity="0.0"
     inkscape:pagecheckerboard="0"
     inkscape:document-units="in"
     showgrid="false"
     units="px"
     width="40px"
     inkscape:zoom="12.951118"
     inkscape:cx="56.636038"
     inkscape:cy="35.016283"
     inkscape:window-width="2530"
     inkscape:window-height="1343"
     inkscape:window-x="3023"
     inkscape:window-y="44"
     inkscape:window-maximized="0"
     inkscape:current-layer="layer1" />
  <defs
     id="defs2">
    <style
       id="style1055">.cls-1{fill:#202020;}</style>
    <linearGradient
       id="linearGradient3656">
      <stop
         offset="0"
         id="stop3658"
         stop-color="#ffffff" />
      <stop
         offset="1"
         id="stop3660"
         stop-opacity="0"
         stop-color="#ffffff" />
    </linearGradient>
    <pattern
       height="100"
       width="100"
       y="0"
       x="0"
       patternUnits="userSpaceOnUse"
       id="gridpattern">
      <image
         height="100"
         width="100"
         y="0"
         x="0"
         id="image1365" />
    </pattern>
  </defs>
  <g
     inkscape:label="Layer 1"
     inkscape:groupmode="layer"
     id="layer1">
    <g
       id="g1374"
       transform="matrix(0.00491376,0,0,0.00491376,0.09240403,-0.04397589)"
       style="stroke:none">
      <title
         id="title1371">Layer 1</title>
      <path
         d="M 1630.1158,83.375397 C 1598.1006,43.009941 1539.7656,36.280091 1499.4004,68.295525 L 1202.7417,303.58475 1057.6914,120.70079 c -10.1138,-12.80601 -30.9954,-15.21152 -43.7622,-5.0484 L 731.29144,339.82294 C 491.23483,530.21851 424.14392,856.68341 552.76874,1121.0245 l -467.52118,370.807 c -60.539959,48.0151 -70.613918,135.3423 -22.598339,195.8819 48.015149,60.5388 135.343169,70.6133 195.881359,22.5981 l 467.52093,-370.8077 c 228.10938,185.4355 561.27429,194.4426 801.33129,4.0454 l 282.6373,-224.1699 c 12.806,-10.1143 15.2113,-30.9965 5.0485,-43.7631 l -145.051,-182.88372 296.6578,-235.28912 c 40.3662,-32.01557 47.0961,-90.34918 15.0802,-130.71582 -32.0152,-40.36536 -90.3496,-47.09424 -130.7152,-15.07923 l -296.6578,235.28876 -236.0038,-297.55774 296.657,-235.2893 c 40.3662,-32.01465 47.0959,-90.34995 15.0807,-130.715176 l -7e-4,5.42e-4 z"
         id="path2821"
         stroke-width="0.518634"
         fill="#f99536"
         style="stroke:none" />
    </g>
    <g
       id="g1135"
       transform="matrix(0.01204969,0,0,0.01204969,0.67622042,4.2779405)">
      <path
         class="cls-1"
         d="m 149.84,473.61 c 7.43,3.67 -2.32,-4.73 5.26,1.74 a 4.33,4.33 0 0 1 -5.26,-1.74 z"
         id="path1059" />
      <path
         class="cls-1"
         d="m 210.35,456.12 c 17.42,-22.12 52.59,-30.69 78,-45.13 3.21,-1.2 0.62,4.6 7.64,1.65 25,-15.07 71.35,-17.28 104.83,-10.82 l -2.09,1.32 c 6.35,1.05 14.46,-2.19 21.3,-1.06 0,0.86 -2.31,1 -0.84,2.36 2,-2.45 12.44,-0.09 15.62,-1.75 2.56,1.26 2,3.44 5.25,5.16 l 4.31,-2.23 c 12,-5 26.16,4.91 41.35,5.71 -0.89,0.48 -2.47,0.62 -1.49,1.57 24.58,1.48 52.94,13.08 78.22,22.88 -1.42,0.49 -3.11,1.8 -2.19,3.55 2.51,-2.24 10.48,0.52 17.29,3.21 1.39,4.43 12.47,3.13 19.14,8.93 l -1,0.24 c 7.16,0.3 7.16,6.32 13.64,5.56 l 2.1,4.3 c 5.53,-1.31 5.92,6.77 10,2.16 l -0.55,-0.74 c 2.83,-3.57 6.23,-2.45 8.84,-6.44 l 0.65,0.08 c 6.65,-7.85 12.2,-11.29 9.48,-13.28 4.58,-0.92 -5.76,8.52 1.15,6.92 18.22,-30.67 46.84,-53.65 68.41,-81 3.61,-2.19 5.55,-3.9 7.17,-3.75 1.67,-3.16 7.79,-10.73 8.37,-14.35 -0.69,1 2.84,-0.64 4.13,-2 5,-4.2 1.3,-7.9 6.88,-12.43 -1,2.78 -0.68,4.23 0.94,4.31 1.53,-6.42 6.83,-12.45 10.47,-18.61 -0.21,1.23 -1,2.8 0.06,3.28 2.29,-8.05 9.19,-10.78 11.78,-17.36 l 0.07,3.25 c 8.65,-7.15 -1.42,-5.17 5.51,-11.77 -0.87,2.2 0.25,2.05 0.65,2.88 -0.44,-6.94 18.52,-25.05 9.88,-22.44 l 0.86,-0.34 c -7.18,-6.26 -13.7,-14 -22.73,-19.54 -2.35,-3.12 4.29,-3.09 -4.12,-8.91 -2.16,3.16 -14.67,-8.86 -12.59,-1.55 -7.14,-7.64 -14.6,-7.94 -18.7,-2 2.09,-3.14 -6.63,-1.67 -0.84,-5.78 l -6,1.45 c -0.69,-2 5,-3.26 2.24,-3.83 -3.27,2.53 -9.78,11.34 -12.23,13.5 -2.64,6.82 -2.65,14.44 -8.39,23.42 1.6,-5.05 -5.36,-0.25 -4,-3.46 -5.35,6.21 8.8,9.91 -12,18.09 -3,-2 1.31,-3.05 -3.5,-5.32 -0.43,1 -2.66,0.2 -4.45,0 -0.8,-1.21 -12.61,-8.19 -11.43,-12.37 -0.35,-2.21 5.19,2.86 2.87,-0.69 -4,-6.37 -9.3,2.35 -8.9,-12.36 h 0.56 c 2,-4 2.53,-12.81 -1.12,-9 -1.09,2.86 2.67,-0.32 0.1,3.6 -1.22,-3.69 0.64,-11.23 2.75,-17.55 -0.13,2.36 1,2.45 1.78,3.67 -0.14,-9.49 2,-18.79 3.91,-28.68 -1.77,-0.77 2.11,4.65 0.68,5.72 3.31,-5.64 4.54,-12.2 5.83,-18.47 l 1,-4.61 0.27,-1.13 c 5.61,21.35 1,5.61 2.06,10.24 l -1.7,-1.11 a 19.34,19.34 0 0 1 -5.52,-5.48 c 1.5,0.65 -0.87,2.73 -0.65,2.23 -4.41,-3.27 -2.45,-5.89 -6.44,-6.64 0.46,-1.59 -4.54,-1.7 -8.2,-3 -2.3,0.15 -0.55,-1.18 2.56,0.21 -5.3,-1.62 -26.17,-7.83 -38,-13.32 -0.11,1.12 -8.57,1.39 -11.43,0.71 l 1.76,-2.16 c -2.25,-2.12 -9.68,-2.21 -9.66,-4.43 -6.88,1.29 24.38,3.63 15.45,3.77 -1.54,-2.85 -12.63,0.9 -9.94,-2 -5.83,-1.44 -12,0 -17.16,-3.37 1.52,0.74 5.48,-2.44 0.69,-3.25 -8.48,-1.29 -2.63,0.64 -9.57,0.24 l -4.42,0.27 c -0.36,1.18 -2.09,0.84 -3.47,0.58 h -0.08 l 13,-8.82 v 0 0 0.13 l -0.06,0.25 -0.11,0.47 v 0.65 c 0.09,0.28 0.46,0.23 1.32,-0.39 -2.23,0.55 -1.87,12.63 -5.6,10.78 l -2.82,-2 c -0.7,3.72 1.78,6.83 2.43,10 -0.4,0.42 -1.27,1.22 -1.73,0.92 4.63,1.78 -2.58,8.66 0,13.94 -3.58,7.27 -5,19.51 -8.92,22.4 v 2.42 0 l -16.6,6.88 H 544 543.55 l -0.91,-0.06 -3.4,-0.38 c -2,-0.54 -4.37,-1 -7.3,-2.05 1.27,-0.21 2.89,0 3.52,-1 -3.36,-2.18 -4.66,-1.14 -8.14,-1.11 1.12,-0.84 -7.53,-3.74 -12,-6 -5.89,1.17 -4,4 -4.66,5.55 -5.12,-5.15 -16.13,2.86 -22.86,-1.13 2,-0.87 8.42,-2.64 3.5,-3.77 -5.62,-4.59 -10.74,4.08 -19.24,2.65 l 2.43,3.78 -1.59,-0.45 h -0.44 -0.2 c 3.07,2.77 -26.71,-24.14 -14.1,-12.75 v 0 0 -0.23 -1 l -0.43,-4.15 c -0.35,-2.63 -0.53,-4.66 1.52,-4.21 -1.44,-2.95 1.35,-10.4 -2.6,-9.39 3.31,-14.51 -2.8,-34.93 2.62,-42.58 -1.74,-3.74 -0.09,-1.64 -1.15,0.31 -4.82,-5 1.17,0.54 -0.75,0.06 a 1.67,1.67 0 0 0 -2,-1.13 c 2.53,2.44 3.38,2.2 4.75,-0.87 -2.94,-3.84 -8.05,4 -18.43,1.14 0.71,-1.5 0,-2.34 -3.69,-2.4 l -7,2.09 c -8,-1.21 -4.33,-4 -4.33,-6.77 -4.38,0.14 -9.75,-0.18 -11.82,1.74 l -5.22,-3.63 c 3.82,2.63 -3.67,1.5 -5.75,2.16 l 2.08,-0.63 c -0.77,-1.19 -5.91,-0.58 -8.5,-0.29 0.6,1.72 5.78,2.52 8.59,3.08 -2.27,1.16 -5.76,0.8 -8.75,2.17 1,-2.68 -7.14,-2 -10.63,-2.3 -4,-0.59 -4.51,2.42 -5.68,2.34 -0.12,-1.41 -6.49,-0.18 -3.42,-2.18 1.37,-0.46 3.13,1.34 5.38,0.09 -2.62,-1 -2.38,-3.48 -7.81,-1.63 -2.06,0.7 -1.66,2 -1.85,3 l -0.83,1 -0.23,0.05 v 0 a 6.62,6.62 0 0 0 1,-0.06 c 0.66,-0.21 0,0.33 3.83,-1 1,-0.93 3.69,-0.29 7.58,-7.7 3.77,-10.43 -5,-17.4 -6.11,-17.28 -4,-1.91 -4,-1.36 -4.79,-1.64 a 16.79,16.79 0 0 0 -1.69,-0.15 c -0.62,0 0.23,0.08 0.3,0.13 a 19.77,19.77 0 0 1 4.11,1.38 c 3.42,1.22 8.64,6.2 9.91,11.32 -2.12,-5.22 -6.6,-8.45 -9.46,-9.3 l -4,-0.83 -0.88,-0.05 c 0.08,0 -0.85,0 0.38,0 l 1,0.11 c -1.62,4.09 6,-9.85 8,16.78 -12.73,10.24 -6.43,3.45 -8.69,5.54 h -0.58 v -0.05 l 0.48,-0.37 -0.42,-0.08 h -0.1 0.25 0.53 a 8.82,8.82 0 0 0 1.2,-0.2 10,10 0 0 0 3.06,-1.22 c 3.38,2.66 8.2,-16 1,-17.69 -10.13,-4.18 -4.27,-1.27 -6.23,-2.16 -0.27,0 0.38,0.15 0.54,0.24 l 3.71,1.7 a 15.44,15.44 0 0 1 6.32,7.19 c 1.85,5.34 0.37,4.14 0.7,6.5 l 2.48,0.07 c -0.52,1.33 -0.81,0.49 -1.08,1.09 3.15,3.07 1.09,12.85 3.94,14.63 0.25,4.14 -2.11,8.18 -2.59,11.87 l -0.17,-0.72 c -1.68,4.42 -1.22,10.37 0.09,14.24 l -0.52,-0.24 c -0.4,2.42 -0.51,8.18 0.59,11.35 -2.48,5.91 -9.44,1.08 -7.07,8.13 -0.59,6.13 3.39,10.19 5.25,7.87 l -0.5,2.1 -0.21,1.06 v 0.06 0 c -5,5.38 11.31,-12 -11.32,12.08 h -0.13 -0.26 l -0.53,0.08 -4.22,0.78 -8.46,2.08 c -5.63,1.38 -11.21,2.48 -16.59,1.55 -1.38,1.28 -0.28,1.7 -3.39,2.89 -8,1 -16.31,3.32 -24.26,5.07 l -1.49,0.32 -0.74,0.15 -0.37,0.08 h -0.18 -0.08 l -17.71,-9.98 v -0.09 l -1,-2.8 -1.66,-5.54 A 39.71,39.71 0 0 1 289.5,203 c 2.55,4.07 2.43,-0.53 3.71,-1.09 -3.37,-2.91 0.59,-5.16 -3.43,-5.2 -2,1.1 -3.11,1.11 -2.43,5.7 -4.37,-8.7 -9.3,-22.55 -9.14,-28.29 -0.07,2.87 -1.41,1.13 -2.74,-0.62 3.57,-0.54 1.69,-7.43 -1.31,-12.09 h -2.28 l 0.91,-4.06 -3,-1.67 -0.75,-0.61 -0.33,-0.41 -0.08,-0.12 v -0.06 l 14.81,11 h -0.06 l -0.25,0.06 -2.62,-0.43 a 3.52,3.52 0 0 0 -1.33,-2.23 c -4.93,2.13 -10.86,4.85 -16.57,4.54 l -5,-2.25 c -2.28,0.79 -5.71,3.37 -1.49,3.49 -9.55,-0.12 -15.69,2.17 -19.47,0.22 -13.92,11.36 -36.49,21.35 -53.49,30.2 l -0.32,-1.67 -0.84,0.22 h -0.09 v 0 c 15.35,-37.16 4.25,-10.3 7.68,-18.59 v 0 0 0.2 l 0.07,0.36 0.39,1.07 1.19,0.87 c 0.87,0.29 1.73,0.37 1.7,2.39 -2,-1.32 -2.12,5 -5.1,1.26 0.46,8.12 5.42,9.14 7.5,13.93 2.26,0.2 -2.41,-3.66 0.45,-3.4 1,0.65 1.31,11.05 4.74,11.38 -0.69,2.27 -3.38,1.39 -4.92,0.7 l 2.79,4.26 c -2,6.73 -10.06,-11.27 -12.87,-4 l 1.66,4.19 c -2.1,5 -6.78,-10.42 -4.92,0.73 2.82,4.28 8.42,7.06 8.64,2.5 3.54,9.56 8.63,2.5 11.27,13.1 -1,3.37 -2.76,-8.31 -4.75,-5.58 -1.14,5.65 4.12,9.56 4.46,14.22 -0.09,-2.61 0.94,-3.1 2.16,-2.56 l 1.88,1.46 0.84,1 0.09,0.14 0.05,0.07 v 0 l -11.07,21.33 v 0 0 l -0.26,0.2 -0.55,0.34 c -5.73,0.45 2.37,-4.08 -5.15,-1.73 -0.58,2.18 -6.92,5.94 -0.6,5 -1.25,4.92 -8.09,1.68 -11,6.19 -3.41,-1.92 5.3,-9.18 -3.34,-7.64 2.26,2.21 -8.71,7.25 -3,9.68 -3.46,0.38 -4.56,-1.61 -2.83,-4.09 -5.14,0 -9.28,8.87 -12.69,4.09 l -0.58,3.3 c -1.75,-0.38 -4,-0.33 -6.89,-1 -2,0.7 -4.9,2.79 -7.44,4.17 a 9.58,9.58 0 0 1 -3.37,1.29 H 138 c -36.91,-9.7 -10.23,-2.69 -18.47,-4.86 v 0 -0.05 -0.15 l -0.07,-0.3 v -0.56 l 0.79,-1.05 c -1.17,-0.67 -7.36,-7.94 -7.18,-3.17 a 10.05,10.05 0 0 0 3.89,4.56 l 1.21,1.42 0.07,0.24 v 0.13 0 0 l 20.35,5.35 v 0 h 0.07 l 0.61,0.16 1.5,0.71 -1.83,-0.33 h -0.16 l -21,-5.52 v 0 0 l -0.07,-0.19 -0.16,-0.36 -0.4,-0.65 -2.35,-2 -5.59,-2.58 0.9,-1.55 c -1.85,-1.05 -4.69,-4.79 -6.91,-4.44 1.77,0.47 2.08,-0.9 1.29,-2.35 l -3.34,0.21 c -6.51,-5.05 2,-4.61 -4,-9.76 l 5.62,3 c -1.21,-0.7 -1.32,-4.33 -4.57,-6.49 -2.73,0.58 -6.66,0.61 -8.83,1 -3.77,-2.23 0.49,-3.24 -4.2,-4.4 l 5.94,1.77 c 1.17,0 0,-5.36 -4.21,-9.38 -3.25,-1.76 -9.19,-2.3 -6.15,2 -1.93,-1.58 -3.75,-5.08 -1.14,-5.1 -3.46,-1.44 -1.62,2 -4.1,2 v -1.74 c 2,2.09 11.42,0.34 10,-0.22 1,-1.49 -1.63,-1.47 -3.62,-1.41 0.18,-1.56 1.47,-4.35 1.1,-5.31 -0.17,-0.11 -1.22,0.61 -2.08,1.18 1.89,-5.08 -3.13,-0.8 -2.86,-5 -2.39,0.81 -4.31,3.87 -5.74,6.16 9.21,-0.77 -1.8,11.1 3.25,13.39 -6.66,8.18 -13.22,-4 -15.84,9.7 2.23,-0.48 1.15,6 4.95,0 -5.15,4.54 0.32,6.71 -6.68,11.25 2.65,-5.78 -8.08,1.43 -4.24,-7 0.79,1.52 4.23,-2.78 4.84,-4 -3.33,0.78 -3.16,-3.84 -8.07,1.43 -2.68,3.5 -6.61,8.13 -4.13,9.15 2.19,1.74 4.25,-5.18 4.47,-1.19 -5.12,7.09 -9.25,5.45 -7.91,11.42 3.35,-4.41 6.41,-3.54 7.78,-2.18 l -3.32,5.55 -0.59,-2.15 c -7.71,6.85 0.55,4.48 -6.23,11.65 l -5.78,1.19 c -0.94,-3.86 10.38,-10.09 5.34,-12.09 -4.38,4.78 -3.78,8.12 -8.65,11.91 l 2.1,-4.13 c -0.81,0.83 -2.9,0.6 -5.12,1.36 a 7.86,7.86 0 0 0 -3.29,2.16 l -1.38,2.07 c -0.48,0.76 0.28,0.07 0.59,-0.37 0,-1.86 0.27,3.92 1.71,-7.52 2.53,-8.37 -18.84,-15 -18.59,-10.18 a 13.16,13.16 0 0 0 -3.25,2.22 c -1.1,1 0.26,-0.36 1.13,-1 29.29,-5.61 16.28,2.06 19.88,-1.26 1.39,-0.09 -2.8,-3.21 -3.8,-4.42 23.18,18.37 15.9,15.15 23,23.13 -3.85,0.54 5.57,11.47 -1.44,6.25 0.06,-4.41 -6.88,-18 -16.2,-22.16 -1.64,3.81 4.4,2.26 -11.32,-3.47 a 15.29,15.29 0 0 0 -10.18,3.29 c -0.66,1.08 -2.83,1.08 4,-2.46 1.41,-2 13.29,-0.17 15.15,6.74 1.76,5.11 0.69,6.37 0.67,7.49 a 11,11 0 0 1 -1,2.69 c -0.15,0.84 -1.07,1.82 -0.36,0.75 a 3.84,3.84 0 0 0 0.4,-3.5 c -0.94,1 -3.26,3.72 -2.7,1.93 0,-0.66 -0.45,0.93 0.63,-3.12 0,-0.19 1.63,-6.68 -6.52,-10 -6.55,-0.78 -6.63,1.38 -7.48,1.47 -0.95,0.83 -1,1.16 -0.81,1.06 a 11.3,11.3 0 0 1 6.55,-1.7 c 8.25,2.35 3.77,4.58 4.35,6.07 1.93,2.13 4.56,3.47 5.58,4.46 2.82,-0.63 0.95,-3.42 3.05,-5.27 5.76,9.52 10.85,16.84 15.83,20.54 0.3,3.53 -2.58,3.82 -4.57,0.53 6.08,9.91 10.86,21.15 14.7,31.33 1.09,-8.22 5.94,10.56 7.29,4.69 -1.46,-5.7 -0.75,-11.57 2.41,-9.47 1.28,3.44 -1.8,0.7 -2,2.47 4.11,3.24 -0.55,8.16 4.79,10.75 -5.6,-8.94 -5.74,0.36 -9.68,0 4.86,6 -2.38,0.72 0.68,7.48 a 154.06,154.06 0 0 1 13.82,21.13 c 1.14,10.85 10.32,24.27 14,32.81 0.26,5.17 -4.61,3.63 -3.21,8.75 2.43,5.69 2.13,-5.85 4,3.3 l -1.06,-0.52 c 2.16,4.61 3.31,14.41 10.93,10 l -4.62,2.14 c 1.26,1.22 3.11,1.21 4.55,1.56 -0.66,1.22 0.39,3.32 -2.45,2.65 3.29,5.43 10.35,5.78 15.65,8.87 l -2.06,-4.19 c 10,3.8 14.69,9.58 23.82,14.12 l -1.54,1.93 5.93,1.91 c -2.51,1.26 1.44,5.45 5.19,5.41 l -16.53,-3.06 c -3,-3.51 5.61,0 4.53,-3.53 -0.89,-3 -9.26,-7.33 -11.78,-6.12 2.93,2.11 3.35,1.74 6.2,2.44 -0.77,3.52 -5.36,0.57 -8.86,1.1 1.69,0.87 3.43,3.15 4.35,2.44 -4,-0.52 -7.35,-2.24 -12.67,-5.38 4.26,1 -0.83,-3 1,-3 -2,2.31 -7.5,0 -13.57,-4.66 -1.42,-2.9 -4.76,-4.29 -8.64,-5.63 -10.11,-6.73 -7.23,-7.92 -10.22,-12.93 5.15,1.68 6,6.5 13.48,8.91 -4.38,-3.59 -3.95,-5.11 -5.24,-10.36 -3.13,-1.61 -7.06,-2.06 -11.11,-8.19 l 1.92,-1.23 c -3.59,-5.6 -6.66,-4.3 -9.3,-12.22 C 58.32,383.56 52.52,370.06 48.35,360 l 1.88,-1.27 c -6.81,-3.61 -9.8,-17.72 -15.2,-24.17 -3.83,-13.53 -14.82,-26 -14.83,-33.7 -2.63,-4.68 -7.92,-10.31 -8.4,-12.15 -12,-19.2 3.37,-14.91 3.17,-22.23 a 277.56,277.56 0 0 1 24,-27.58 l -0.58,5.4 c 1.4,-5 3.41,-0.92 6.15,-4.54 -5.5,2 1.9,-6.86 2.79,-10.57 13.33,-5.9 11.25,-19.76 38.39,-25.81 l 0.79,2.44 c 17.85,4.14 21.08,15.58 30.52,25.33 0.35,1.71 0.51,4.8 3.25,7.43 7.4,2.61 9.69,5.45 18.18,11.6 l 2,2.29 1.06,1.29 0.54,0.67 v 0 0 c 3.08,0.81 -26.78,-7 -14.14,-3.71 v 0 h 0.1 l 0.2,-0.07 0.41,-0.12 6.83,-2 c 4.68,-1.26 9.44,-2.36 13.19,-3 a 181.24,181.24 0 0 1 18.75,-9.39 l 9.7,-4 4.9,-1.84 2.47,-0.94 0.61,-0.24 c -3.87,7.47 8.7,-16.73 -8.67,16.75 v -0.06 -0.08 l -0.05,-0.16 -0.09,-0.31 -0.37,-1.27 c -3.93,-13.54 -7.65,-27.28 -12.93,-40.71 l 2,-2.7 -4.42,-9.89 -1,-2.57 -0.25,-0.65 v 0 c -1.53,3.68 13.29,-32.13 7,-17 v 0 l 0.08,-0.05 0.16,-0.1 0.32,-0.21 1.29,-0.85 5.08,-3.07 a 186.37,186.37 0 0 1 21.17,-10.44 c 14.37,-6.22 28.76,-11 40.65,-15.76 L 234,145 c 7.71,-1.16 17,-5.76 14.47,-8.34 8.09,-0.44 20,-5.95 26,-2 a 25,25 0 0 0 9.56,-1.18 l 0.94,-0.3 c -12.6,-9.38 17.19,12.77 14.12,10.49 v 0 0 0 l 0.07,0.08 0.14,0.18 0.26,0.33 1.08,1.41 2.1,3.55 c 3.53,15 5.79,20.18 11.42,33.48 l -0.94,-3.46 c -1.46,-1.16 -3.31,-0.66 -2.38,2.82 3,4.65 5.49,19 8.76,12.19 a 61.36,61.36 0 0 0 3.21,11.94 l 1.16,3.06 0.6,1.53 0.08,0.19 v 0 c 17.5,10 -23.83,-13.68 -19.56,-11.24 h 0.07 0.1 l 0.41,-0.09 0.81,-0.19 6.49,-1.6 c 8.67,-2.13 17.32,-4.13 25.07,-3.46 -1.52,-1.21 2.14,-2.18 3.5,-3.45 6.63,-1.29 13.57,-1.85 20.12,-2.65 l 2.43,-0.31 1.21,-0.17 0.59,-0.09 h 0.09 l -14.46,15.42 v 0 0 -0.14 -0.28 l 0.56,-4.52 a 39.28,39.28 0 0 0 -0.05,-8.55 c 1,-2 2.15,3.61 2.85,-1.76 -0.24,-3.24 -1.9,-0.26 -2.32,-4.26 -0.29,-10.8 1.27,-21.47 2.69,-31.58 0.57,-4.77 1.34,-10.31 1.33,-13 1.83,0.39 -3.87,-4.4 4.18,0.2 3.74,1.23 8.21,0 9.79,-3.07 l 0.85,-2.38 0.14,-1.27 v -0.64 -0.4 c 0,31.78 -0.07,8.81 -0.13,15.9 -0.17,0 -0.14,0 -1,0 -0.48,-10.79 -0.23,24.55 -12,-27.41 16.47,-11.19 8.6,-4 11.5,-6.2 l 0.79,-0.06 h 1.3 l 8,-0.11 a 347.59,347.59 0 0 1 55.24,0 c 9.63,1 18.55,1.62 30.4,5.11 a 34.91,34.91 0 0 1 12.3,6.42 c 9.51,10.41 6.94,12.57 8.4,15.68 1.57,6.87 1.46,10.36 2.16,15.49 l -1.1,-0.32 c 5,12 -3.12,27.78 3.11,37 -1,2.74 -0.51,10.46 -2.6,8.42 l 0.69,3.79 0.1,2.12 v 1.13 0.58 0.29 0 c -8.94,-8.09 20.05,18.12 -20.07,-18.13 h 0.3 l 10.52,-0.29 c 7.24,0.05 15,0.32 21.9,-1.63 l -3.48,0.66 c 14.07,2.51 26.6,-0.91 42.71,5.28 -1.75,0.08 -4.78,-0.24 -5.47,0.71 5.11,2.68 16.5,-0.26 18.18,6.51 3.68,1.61 3.94,-1.08 1.48,-2 l 3.46,1.77 0.1,0.06 h 0.06 c -10.52,4.36 23.57,-9.74 -23.57,9.78 v 0 l 0.06,-0.18 0.1,-0.34 0.21,-0.69 0.41,-1.37 1.61,-5.56 2.94,-11.31 5.1,-23.15 2.31,-11.74 0.56,-2.94 0.28,-1.47 0.15,-0.74 0.07,-0.37 V 152 151.93 L 567.44,139 h 0.1 l 6.5,0.71 24.78,3.9 c 22.3,8.95 -0.75,8.52 18.25,9.95 1.18,1.41 1.64,-1.58 1.57,-0.47 7.41,0.85 9,8.61 14.53,8 -0.87,-3.76 3.76,-0.47 4.6,-2.23 13.13,7.06 14.31,11.31 26,14.51 l -1.61,1.07 c 7.39,0.55 14,5.5 20.62,9.23 l 2.47,1.49 1.23,0.73 0.15,0.09 v 0 0 c -0.95,-3.51 8.24,30.53 4.35,16.13 v 0 0.08 l -0.06,0.3 -0.12,0.6 -0.84,4.78 a 33.8,33.8 0 0 0 -0.13,9.25 l -15.9,50.23 -1,3.12 -0.24,0.78 -0.07,0.19 v 0.1 c 6.16,19.93 -8.43,-27.09 -6.91,-22.24 v 0 l 0.33,0.23 1.33,0.95 5.31,3.77 10.62,7.52 5.29,3.75 2.66,1.88 1.32,0.94 0.66,0.46 0.33,0.24 0.16,0.11 0.09,0.06 c -13.44,2.53 30.14,-5.61 -30.12,5.67 v -0.05 L 671.25,263 c 13.88,-15.35 12.77,-30.16 49.46,-46 47.23,6.84 42.29,21.76 61.55,32.77 l 9.64,9.23 4.78,4.71 1.24,1.24 c 4.22,60.62 1.15,16.83 2.08,30.37 v 0 l -0.07,0.08 -0.12,0.16 -0.24,0.32 -0.5,0.65 -2,2.55 -15.57,20.34 -31.27,40.58 c -10.59,13.46 -21.29,26.84 -32.9,40.18 -6.13,6.9 -11,12.75 -20.5,21.2 -7.53,6 -9.22,7.89 -16.06,15.14 -13.64,9.33 -13.91,10.46 -25,25.83 0,-1.06 0.63,-2.06 -0.71,-1.55 2.47,3.06 -9.14,10.36 -8.48,14.31 -9.49,2.26 -4.11,18.26 -43.06,10.26 -4.21,-2.77 -9.46,-6 -14.53,-8.78 -10.2,-5.74 -20.86,-11.22 -32.29,-16.46 3.77,1.34 6.89,-0.45 2.47,-2.27 h -5.49 l -0.3,-1.27 c -3.18,-0.9 -7.1,-0.77 -4.56,1.72 -58.19,-23.08 -118.05,-44.19 -179.6,-40.48 -14.35,0.29 -35.12,2.58 -49.8,8.08 -45.83,5.72 -88.24,22 -123.13,55.92 -0.01,-0.03 -0.98,-11.17 14.06,-25.71 z"
         id="path1061" />
      <path
         class="cls-1"
         d="m 141.18,468.75 c -0.57,-2.47 -5,-6.33 0.21,-6 -0.39,1.76 1.14,4.93 -0.21,6 z"
         id="path1063" />
      <path
         class="cls-1"
         d="m 62.55,344.77 c -0.58,0 -0.25,-2.32 -0.18,-2.89 0.91,1.69 3.05,2.7 2.81,4.49 -0.91,-1.74 -1.59,-1.11 -2.63,-1.6 z"
         id="path1065" />
      <path
         class="cls-1"
         d="m 46.68,308.13 c 1.68,-0.16 6.67,7 9,11.53 z"
         id="path1067" />
      <path
         class="cls-1"
         d="M 27.33,266.2 C 8.56,255.36 -5.19,271.1 1.5,265 c 1.23,-1.19 9.85,-6.6 20.79,-3.27 11.31,4.86 5.74,3.34 9.93,6.14 -0.02,1.13 -2.86,-1.03 -4.89,-1.67 z"
         id="path1069" />
      <path
         class="cls-1"
         d="m 7.86,267.37 c 1.79,-2.56 17.41,-0.7 20.32,8.59 2.57,6.92 1.11,8.7 1.12,10.2 a 14,14 0 0 1 -1.25,3.57 l -0.36,1 -0.77,1.46 1.21,-0.85 2.4,-0.93 c -0.6,-0.38 -1.42,1 -2.3,2.18 -0.88,1.18 1.07,-1.44 1.12,-2.7 0.07,-1.59 1.84,-1.05 1.06,-10.33 0.61,-5.23 -10,-15.39 -16.58,-14 -5.92,0.17 -7.29,1.64 -8.51,2.13 -2.53,1.95 -3.91,2.46 2.54,-0.32 z"
         id="path1071" />
      <path
         class="cls-1"
         d="m 80.25,241 c 1,-0.94 3,-4.33 4.88,-3.45 -1.77,-0.35 -4.32,6.01 -4.88,3.45 z"
         id="path1073" />
      <path
         class="cls-1"
         d="m 84.63,239.61 c 0.72,0.85 0.85,1.37 2.07,1.94 1,1.95 -1.39,1.31 -2.71,0.25 z"
         id="path1075" />
      <polygon
         class="cls-1"
         points="480.59,220.07 476.86,221.2 477.27,219.56 "
         id="polygon1077" />
      <path
         class="cls-1"
         d="m 652,233 c -0.33,4.11 -2.32,2.15 -2.76,2.71 0.95,-3.48 1.4,1.9 2.76,-2.71 z"
         id="path1079" />
      <polygon
         class="cls-1"
         points="747.83,256.11 746.86,255.4 749.25,253.06 "
         id="polygon1081" />
      <path
         class="cls-1"
         d="m 82.9,417.15 c -1.59,2 2.73,1.52 -0.59,2 -0.5,-1.29 -0.65,-2.39 0.59,-2 z"
         id="path1083" />
      <path
         class="cls-1"
         d="m 678.23,395.11 c -11.44,1.33 -13.26,-12 -23.29,-13 -1,-0.31 3.07,-3.48 0.61,-3.93 -10.7,0.49 -18,-10.62 -23.85,-20.08 l 1.25,-0.77 c -1.13,-1.8 -5.45,0.59 -6.83,-1 0.45,-0.73 1.21,-0.69 1.46,-1.95 -1.84,1.94 -3.75,-0.9 -5.51,0.29 -0.14,-1.28 1,-3 0.74,-4.53 l -2.54,1.93 c -6.37,4.43 -6.29,-4.64 -11.95,-3.56 0.52,-0.5 1.17,-0.77 1.2,-1.52 -8.31,0.55 -15.6,-4.11 -23.17,-6.22 a 7.7,7.7 0 0 0 1.91,-3.68 c -1.72,2.69 -4.11,2.16 -6.3,2 0.46,-3.29 -4.48,1.31 -6,-1.24 l 0.47,-0.56 c -3,2.4 -1.69,-2.81 -4.61,0.35 l -0.06,-2.77 c -2.47,3.89 -1.49,-3.17 -3.74,-1.6 l -0.31,0.87 c -1.69,0.49 -1.51,-1.9 -3,-1.69 l 0.08,-0.53 c -3.22,-0.07 -4,-3.1 -5.14,0.24 0,-3.07 3.17,-0.08 3.11,-4.59 -10.68,-0.16 -20.23,-3.75 -29.82,-6.82 -0.72,-1.64 -1.32,-2.23 -1.2,-3.59 -1.18,0.46 -3.89,-0.28 -5.24,1.26 0.35,0 -0.17,-1.91 -0.65,-2.21 -1.45,-1.73 -2.9,3.29 -4.47,1.27 a 3.81,3.81 0 0 0 1.6,-3.11 c -2.33,2.27 -4.46,1.29 -6.63,1.68 0.44,-0.5 1,-0.73 1.18,-1.83 -2.86,2.52 -3.81,-1.62 -6.13,-0.15 l 1.13,-1.82 c -2.54,-3.18 -1.79,3.94 -4.12,1.89 0.78,-0.52 0.71,-1.33 1,-2.12 -3.23,3.17 -7,1.31 -9.71,2.12 l 0.25,-0.81 c -2.77,0 -5.41,-1.63 -8.63,-0.53 -0.94,-1.08 1.13,-4.87 -1.86,-4.61 -0.52,4.07 -5.12,0.83 -4.09,5.71 -2.3,-1.18 -6,-3 -7.82,-1.78 1.29,-1.43 -0.61,-5.09 1.49,-5.22 l -1.27,-2.64 c 0.44,-1.64 1.55,0.73 1.31,-1.42 -1.07,0.07 -4.29,1.37 -5.15,0.61 -2.21,2.3 -4.42,6.8 -7.52,7 1.59,-1.44 -0.43,-4.58 0.63,-5.18 l -5,7.38 c -1,0.09 0,-3.24 -1.52,-2.32 0,1.08 -0.7,1.69 -1.2,2.53 -0.36,-0.6 -4.29,0.76 -4.49,-3.28 -0.36,-1.58 1.72,-0.77 0.67,-2.26 -1.9,0 -2.07,1.35 -4,1.34 v -0.54 c -1.24,-0.64 -3.77,1.58 -2.52,3.87 0.86,0.14 -0.22,-2.44 1,-1.22 -1,2.31 -3.19,2.88 -5.06,2.85 0.66,-0.61 0.62,-1.7 0.93,-2.83 -2.66,3.08 -5.34,4 -8.15,5.21 -0.08,1.92 1.11,-3.46 1.5,-2.43 -3.58,-2.85 -7.45,3.51 -10.43,-0.24 0.48,-0.34 0.27,2.73 0.23,2.19 -1.72,-0.2 -1.67,-3 -2.8,-1.93 -0.12,-1.63 -1.42,0.56 -2.56,1.08 -0.58,1.19 -0.32,-0.79 0.69,-1 -1.61,1.4 -8,4.07 -11.8,1.78 0.11,1.07 -2.11,4 -3,3.9 l 0.2,-2.53 c -0.85,-1.53 -2.85,0.43 -3.11,-1.74 -1.68,3.1 6.94,-3 4.57,-0.48 -0.75,-2.11 -3.25,4.12 -2.9,0.68 -1.72,0.24 -3.21,3.2 -5,1 0.5,0.36 1.18,-3.61 -0.21,-3.32 -2.43,0.64 -0.62,1.26 -2.56,2.25 l -1.17,1.14 c 0.1,2.46 -2.21,-0.16 -1.1,2.51 -0.46,-2 -3.44,1.53 -3.52,-2.56 l 0.07,-3.23 c -1,0.32 -1.46,3.51 -2.16,5 l -0.49,-1.43 c 0.27,4.92 -2.57,-0.21 -3.46,3.67 -2.38,-1.58 -5.62,0.36 -7,-2.5 -1.54,1.7 -2.86,3.65 -4.92,2.86 0.33,-0.51 0.84,-0.72 0.82,-1.78 -1.39,-1.28 -1.54,0 -2.55,1 0.16,-0.76 -2.8,-2.54 -4.4,-4.08 -1.5,1.68 -0.55,4.23 -0.5,5.86 -2.23,-4.61 -4.3,3.72 -6.87,-0.39 0.48,-0.74 2.12,-2.68 0.52,-3.71 -2.29,-4.59 -2.59,3.92 -5.42,2.11 l 1.25,3.86 c -1.51,-2.26 -3.25,3 -3.67,-1.12 -0.58,1.57 -3.14,-0.8 -2.2,3 -4.64,-2.54 -9.45,3.74 -13.29,-2.73 -0.45,0.75 -2.05,0.35 -1.35,2.27 1.4,2 1.05,-1.77 1.7,-0.38 -0.5,0.21 -0.4,1.29 -0.35,1.83 -1.43,-0.65 -2.49,-0.75 -1.94,-4.17 -3.31,-1.83 -1.55,7.18 -5.4,6.44 -0.17,-1.62 -0.57,-2.16 -1.56,-1.67 l -1.37,3.16 c -2.42,-0.11 -2.1,-3.32 -2.75,-6 -1.13,0.74 -2.67,0.95 -2.77,3.08 l -2.28,-3 c 1.66,2.18 -0.64,1.85 -1.06,2.63 l 0.42,-0.78 c -0.49,-1.1 -1.76,-0.07 -2.4,0.42 0.57,1.63 2.18,2 3.08,2.28 -0.35,1.32 -1.39,1.26 -1.89,2.83 -0.34,-2.68 -2.44,-1.42 -3.48,-1.47 -1.26,-0.31 -0.68,2.63 -1,2.62 -0.36,-1.36 -1.86,0.25 -1.47,-1.88 0.27,-0.54 1.19,1.07 1.52,-0.27 -1,-0.84 -1.48,-3.21 -2.58,-1.08 -0.81,1.6 1.59,5.09 -1,4 l 0.45,-2.94 -2.38,-0.81 0.52,2.4 -0.5,-1.07 c 0,2.67 -2.9,1.61 -2.62,4.55 -0.95,0.52 -2.58,-1.07 -3.64,-1.08 l 0.14,-0.26 c -1.57,-1.08 -2.92,0.26 -3.48,2.13 l -0.09,-0.53 a 3.15,3.15 0 0 0 -2.56,2.38 c -2.14,-1.34 -3.08,-8.79 -4.06,-5.32 -1.67,0.52 -1.37,5.07 -0.27,6.38 -3.44,-0.68 -5.65,4.21 -9.51,1.4 -0.13,1.08 0.32,1.59 -0.39,2.42 -4.64,0.45 -8.29,5.54 -13.22,2.13 0.92,-1.41 -0.7,-2.37 -1.16,-3.69 -0.34,2.45 -2,-1.73 -1.15,2 0.81,2.07 1.05,3.13 2.54,3.56 -2.19,2 -6.07,3.38 -8.18,1.91 1.05,0.72 0.72,1.56 0.37,2.38 -1,-3.41 -3,-3.26 -4.07,-1.57 l 0.52,2.1 -1.68,-1.77 c -0.32,0.84 0.91,4.48 -1.2,3 l -1.2,-2 c -0.89,2.18 -1.95,5.7 -4.16,4.61 l -2.39,-2.46 c -0.56,0.58 -1,2.8 0.47,3.19 -3.37,-0.74 -5.21,-0.29 -7,-2.51 -2.33,8 -9,10.76 -14.48,12.64 l -0.45,-1.57 c -2,-0.79 0.33,2.93 -1.1,2.31 -0.13,-1.62 -2.39,-2.65 -2,-4.86 -2.73,-0.71 -1.6,3.7 -2.65,4.93 0.62,2.05 0.55,-1.7 1.33,0.9 0.07,0.79 -3.5,-0.35 -2.56,2.75 -1,-0.95 -1.53,-3.29 -1.76,-4.61 l -0.65,2 c -3,-2.8 0.91,-7.65 -2.53,-11.23 l -1,0.94 c -2.45,-2.61 1.65,-4.78 -1.78,-4.61 -0.68,2 0.07,6.74 1.77,7.58 -2.31,1.93 1.78,7.53 -1.15,8.51 -1.52,-1.41 2.08,-1.41 0.49,-3.59 -2.38,-1.82 -2.09,2.51 -3.64,2.2 1.8,0.52 2,4 1.39,4.91 -2,-0.75 -0.29,-3.2 -2.45,-2.6 0.41,1.85 -0.87,4 1.25,4.42 1,4.17 -2.57,-0.13 -2.33,3.34 -1.87,-2.41 -0.71,-7.18 -3.54,-7.53 1.51,2.44 -1.15,4.76 1.75,8.08 -1.19,-0.35 -2.21,-2.35 -2.3,-4.23 -2,-1 -0.85,6.09 -3.61,1.13 l 0.79,2.83 c -0.79,-0.69 -1.64,-1.09 -2.93,-2.23 -1.13,0.42 -1.84,5.21 -3.61,1.17 -0.15,0.58 -2.71,1.59 -0.46,3.88 2.32,0.94 0.82,-2.85 3.41,0.47 -2.5,-2.53 -2,1.45 -2.42,2.89 l -0.87,-1.47 c -0.24,0.86 -1.61,1.09 -1.15,2.92 a 2.4,2.4 0 0 0 -1.31,-2.19 l 0.56,2.6 c -1.57,2.19 -2.47,-3.87 -4.23,-2.19 l 0.72,-2.57 c -0.16,0.55 -1.92,-1.29 -2.57,-0.08 0.63,2.32 1.14,5.22 1.61,7 -0.72,1.5 -1.69,-2.14 -1.78,0.59 l 0.26,-3.28 c -0.1,-0.81 -2.73,-3 -4.27,-2.21 -0.65,1.22 -0.69,5 1.45,5.43 -0.76,0.41 -2.5,-0.35 -2.64,-2.2 -1.4,1.63 1.36,2.16 0.49,4.25 -1.32,-1.1 -4.26,-2.12 -6.46,-3.57 l -0.18,-4.35 -1.08,0.5 c 0,-3.53 -1.79,-1.79 -2.51,-5.18 -1,-0.09 -1.34,1.37 -1.66,2.51 4.55,3.7 0.93,7.74 3.77,11.77 -2.27,2.66 -7.24,-9.64 -6.76,-1.31 1.08,0.88 1.37,4.9 2.54,2.72 -2,0.45 1,5 -2,4.26 0.62,-2.61 -4,-3.49 -3.07,-7.27 0.6,1.5 1.84,0.43 2,-0.13 -1.61,-1.29 -2.12,-4.45 -4,-3.51 -0.92,1 -2.41,1.92 -1,4.06 1.34,2.45 1.56,-1.18 2.16,1.7 -1.76,2.05 -4.13,-1.51 -2.72,3.37 1.21,-1.1 2.91,1.26 3.78,3 l -1.07,1.89 -0.56,-1.8 c -3.22,0.21 0.82,3.38 -1.92,4.29 l -2.92,-2.6 c -0.9,-3.11 4.33,-0.73 1.45,-5 -1.74,0.7 -1.05,3.3 -3.22,2.95 l 0.67,-1.52 c -0.67,0.17 -4.51,-5.52 -5,-0.75 -0.47,2 0.55,1.77 1.45,3.49 -2.37,1.91 -2.18,4.11 -3.71,5.3 -1.48,-3.48 -3.14,1.35 -3.16,-3 1.93,1.45 5.57,-0.88 4.81,-4.5 -3.11,-3.4 2.38,-0.57 0.79,-4.83 -2.18,1 -4.17,-2.86 -5.9,-5.19 -0.69,0.14 -0.69,1.52 -0.83,2.1 1,2.5 1.81,2.05 3.19,4.47 -2.72,0.65 -4.26,3.27 -4.26,6.29 -1.44,-0.73 -2.52,-3.22 -1.71,-4 a 19.83,19.83 0 0 1 -8.66,4.45 c 3.9,2.82 -2.41,2.62 0.59,5.11 1.9,0 4.66,2.05 4.88,4.22 -1,0.27 -0.94,-1.7 -1.77,-2.29 0.09,2.73 -3.67,-2.33 -2.85,1.6 1.79,-2.71 -2.22,-4.94 -3.49,-8.19 -0.86,2.75 -1.16,-2.18 -3,-1.11 a 20.16,20.16 0 0 1 -4,7.18 c -4.22,-1.3 -6.41,3.84 -8.58,5.31 -2.1,-0.77 -3.36,-4.58 -5,-4.37 -1.47,1 3.33,2.88 0.18,2.75 l -0.2,-0.79 c -0.19,1.18 -5.47,0.32 -3.11,5.47 l -1.59,-4 c -0.62,-0.07 -0.48,1 -0.58,1.59 -0.76,-1.15 -1.91,-1.9 -1.73,-3.09 -2.94,-1.58 -2.64,2.2 -4,3.27 l 2.31,1.49 c -1.43,3.29 -4.48,2.3 -6.41,4.63 l -1.29,-2.08 -0.61,2.19 c -1,-2.22 -3.16,-2.59 -2.8,-0.43 l 0.4,-7.52 c 1.86,0.51 0.49,3.23 2.5,4.8 1.73,1.38 3.6,-0.65 2.68,-2.86 -1,0.34 -0.76,0.82 -1,2 -2.17,-2.65 -0.78,-3.41 -1.37,-5.74 -0.39,0.42 -1.61,0 -1.11,0.94 0,-2 0.75,-2.79 2.21,-3.84 -0.29,1.78 1.7,1.4 1.85,2.47 -1.52,-2.59 -0.59,-4.32 1.74,-4.79 3.2,2.08 2.32,-4.11 5,-4.68 0.73,3.14 0.91,5.91 0.27,7.78 2.16,0.43 1.45,-1 3.62,-0.59 -0.55,-2.33 -1.93,-5.58 -0.86,-7.85 l 1.28,1.85 c 1,-2 -0.73,-4.8 1.68,-5.53 4.11,-1.25 7.78,-3.42 10.67,-4.77 L 122,394 c -0.9,-5 4.16,-4.51 5.17,-7.52 4.58,-0.11 6.61,-6.17 10.3,-3.82 5.38,-5 10.13,-9.36 17.05,-12.12 l 0.4,3.46 c 0.07,-2.73 1.63,1.27 2.56,0.25 -2.53,-1.63 0,-3.8 0,-6 4.1,0.77 6.6,-3.62 8.2,-7 l 1.11,2 c 0.74,-5.14 5.61,-3.31 9.22,-4.29 0.78,0.65 2.29,2.26 3.17,1.56 0.23,-4.13 1.29,-4.34 3,-7.67 a 15.73,15.73 0 0 1 8.06,-1.17 c 5.27,-7.94 14.11,-8.42 20.72,-14.39 l 1.57,2.2 c 5.36,-8.44 16.67,-7.33 22.15,-12.47 l 1,4.45 c 2.51,0.51 4.22,-2.88 2.59,-5.67 2.52,0.49 4.39,-4 7,-1 2.4,0.05 1.89,-2.86 3.46,-4 4.83,0.13 6.27,-0.77 10,-3 l -1.08,0.08 c -0.13,1.09 0.45,2.91 1.54,2.84 1.09,-1.71 5.87,-0.75 2.69,-5.34 5.26,1.52 9.38,-5.56 14.85,-2.89 -0.79,-1.29 0.2,-1.89 0.35,-3 3.83,-1.22 8.64,0.32 11.05,-2.85 0.81,0.55 -0.29,2.68 1.32,2.4 0.77,-0.8 -0.51,-1.85 0.42,-3 5.56,-4.33 13.42,-0.67 18.89,-2.87 9.59,-5 20.53,-6.36 30.38,-8.48 l 0.09,1.09 c 2.59,-4.66 8.52,2.75 10.1,-3.84 1,0.87 3.09,-0.05 2.84,2.1 2.18,-3.41 7.81,1.43 11.13,-2.67 l -0.88,0.7 c 4.22,1.86 7.21,-1.82 11.59,-0.22 -0.36,0.52 -1.08,1 -1.06,2 1.82,1.85 3.21,-5 4.67,0.05 0.9,-0.16 0.36,-2.68 -0.18,-2.46 9.17,0.8 18.51,-2.91 27.92,-4.94 6.94,2.68 0.86,8.67 6,4.6 0.47,1 0.22,-2 0.34,-0.91 2,-1.51 3.42,5.72 4.75,3 -0.7,-3.18 0.89,-1.81 0.87,-3.75 4.2,2 5.05,4.84 8.26,2.33 l -0.22,1.69 c 3.76,-4.79 8.17,-2.5 11.49,-7.75 21.26,-0.41 42.17,-2.13 63.15,1.09 20.36,4.21 41,7.28 60.21,16.92 3.22,5.81 3.66,5.47 9.29,5.94 l -0.74,1.38 c 1.55,-3.28 3.65,1.14 5.38,-1.88 7,3.69 14.09,5.39 21.45,8.73 -1.3,-0.23 -3.11,2.16 -1.67,2.64 l 2.39,-1.38 -0.21,1 c 1.15,0 2.94,-1.12 2.48,-2.65 19.91,6.17 33.59,22.7 50.19,33 2.89,4 9,6.83 13.57,9.28 9.57,12.46 16.08,24.93 29.95,32.1 -0.15,0.12 -8.07,5.6 -14.06,3.23 z"
         id="path1085" />
      <path
         class="cls-1"
         d="m 85.09,415.18 c 1.46,1.19 3.4,1.08 3.66,3.81 -1.09,-1.3 -2.88,-2.37 -3.66,-3.81 z"
         id="path1087" />
      <path
         class="cls-1"
         d="m 132.43,407.43 c -0.22,-0.5 0.91,0.32 1.18,0.5 -0.39,0.39 -0.06,2 -0.9,1.37 0.4,-0.39 -0.11,-1.09 -0.28,-1.87 z"
         id="path1089" />
      <path
         class="cls-1"
         d="m 142.64,402.83 c 0.64,1.48 -0.8,3.76 -1.92,4.62 z"
         id="path1091" />
      <path
         class="cls-1"
         d="m 154.9,403.61 c 1.43,0.77 1.57,1.54 0.5,2.07 z"
         id="path1093" />
      <path
         class="cls-1"
         d="m 153.79,400 c 0.73,-0.44 1.56,0.19 2.37,0.81 -0.69,-1.17 -1.34,1.74 -2.37,-0.81 z"
         id="path1095" />
      <path
         class="cls-1"
         d="m 175.79,393.79 c 0.42,-0.36 0.86,-2.08 2.11,-0.7 -1.07,-0.87 -1.41,3 -2.11,0.7 z"
         id="path1097" />
      <path
         class="cls-1"
         d="m 184,387 c 0.35,-0.05 0.6,0.16 0.76,-0.41 a 1.43,1.43 0 0 1 0.4,2.09 z"
         id="path1099" />
      <polygon
         class="cls-1"
         points="361.4,322.06 360.42,323.05 360.33,321.44 "
         id="polygon1101" />
      <path
         class="cls-1"
         d="m 443.86,316.79 c 1.15,-1 0.72,1.54 0.9,1.78 -1.01,0.14 0.44,-1.97 -0.9,-1.78 z"
         id="path1103" />
      <polygon
         class="cls-1"
         points="489.28,312.82 488.93,312.81 489.54,309.55 "
         id="polygon1105" />
    </g>
  </g>
</svg>
